<svg id="_x33_0" enable-background="new 0 0 64 64" height="512" viewBox="0 0 64 64" width="512" xmlns="http://www.w3.org/2000/svg"><g><path d="m28.707 24.292-1.414 1.415.535.534c1.133 1.134 2.64 1.759 4.244 1.759 1.492 0 2.923-.551 4.029-1.553l.779-.706-1.344-1.482-.778.706c-.737.667-1.691 1.035-2.686 1.035-1.069 0-2.074-.416-2.83-1.173z"/><circle cx="27.929" cy="18" r="1"/><circle cx="35.929" cy="18" r="1"/><path d="m53 27c-2.203 0-3.996 1.791-4 3.993v.178c-1.164.413-2 1.525-2 2.829 0 .852.25 1.677.723 2.387l1.233 1.85-.353 2.469c-2.044-3.063-5.233-5.252-8.89-5.983l-.901-.18c-.923-.185-1.681-.784-2.089-1.597 3.804-.27 7.279-2.251 9.414-5.454l.037-.057c.494-.764.755-1.647.755-2.559 0-.729-.172-1.457-.497-2.107-.983-1.966-1.503-4.167-1.503-6.365v-5.476c0-4.271-3.396-7.765-7.695-7.923-2.07-1.313-4.453-2.005-6.911-2.005-7.346 0-13.323 5.977-13.323 13.323v.864c-1.194.386-2.071 1.501-2.071 2.816 0 1.923 1.116 3.584 2.724 4.412-.054.116-.098.238-.156.352-.325.652-.497 1.38-.497 2.109 0 .933.273 1.837.791 2.613l.059.086c2.158 3.182 5.647 5.137 9.457 5.377-.372.829-1.104 1.466-2.005 1.691l-3.85.962c-6.154 1.54-10.452 7.045-10.452 13.388 0 7.724 6.283 14.007 14.007 14.007h11.993c2.206 0 4-1.794 4-4 0-.913-.32-1.746-.837-2.42.988-.351 1.879-.908 2.619-1.629l2.946 2.451c1.231 1.026 2.793 1.591 4.397 1.591 3.791 0 6.875-3.084 6.875-6.875v-21.118c0-2.206-1.794-4-4-4zm-3 6h1v-2c0-1.103.897-2 2-2s2 .897 2 2v6h-4.465l-1.148-1.722c-.253-.381-.387-.822-.387-1.278 0-.551.448-1 1-1zm-19 6v2h-1c-1.654 0-3-1.346-3-3v-1.904c1.26-.704 2.187-1.932 2.477-3.381l.012-.06c.791.223 1.616.345 2.461.345.88 0 1.739-.128 2.56-.37.307 1.457 1.229 2.668 2.49 3.356v2.014c0 1.654-1.346 3-3 3h-1v-2zm3.085-26.43.429.43h1.441c1.644 0 2.989 1.337 3 2.977l.022 7.977c.005 1.881-.724 3.65-2.052 4.982-1.327 1.331-3.094 2.064-4.975 2.064-1.878 0-3.644-.732-4.971-2.06-1.327-1.329-2.058-3.095-2.056-4.973l.005-5.966c0-.013 0-.025 0-.037v-1.6c0-2.958 2.406-5.364 5.364-5.364 1.434 0 2.781.558 3.793 1.57zm8.844-1.641v5.476c0 2.506.593 5.017 1.714 7.26.188.374.286.792.286 1.212 0 .537-.157 1.058-.455 1.505l-.022.034c-1.548 2.302-3.925 3.841-6.589 4.369.163-.141.326-.282.479-.436 1.706-1.71 2.643-3.983 2.636-6.4l-.022-7.981c-.018-2.63-2.093-4.768-4.683-4.935l1.494-5.977c2.907.377 5.162 2.864 5.162 5.873zm-24.985 6.103c.241.009.509.094.695.278s.289.429.289.69v1h2v-1c0-.802-.314-1.553-.886-2.115-.3-.295-.653-.512-1.043-.656v-.906c.001-6.243 5.08-11.323 11.324-11.323 1.953 0 3.846.522 5.52 1.506l-1.439 5.755c-1.205-.817-2.623-1.261-4.111-1.261-4.061 0-7.364 3.303-7.364 7.364v1.6c0 .811-.317 1.573-.894 2.144-.575.572-1.345.876-2.15.875-1.63-.013-2.956-1.35-2.956-2.983 0-.524.426-.958 1.015-.968zm1.513 9.35-.024-.036c-.284-.439-.433-.947-.433-1.47 0-.419.099-.838.285-1.211.115-.23.209-.473.314-.711.091.006.178.029.27.029h.042c1.102 0 2.149-.353 3.015-1.006l-.002 1.988c-.002 2.413.936 4.681 2.641 6.388.15.15.309.286.467.424-2.663-.537-5.035-2.085-6.575-4.395zm17.543 34.618h-6v-4.465l1.723-1.148c.38-.253.821-.387 1.277-.387.552 0 1 .449 1 1v1h2c1.103 0 2 .897 2 2s-.897 2-2 2zm13.125-4.007c-1.138 0-2.245-.4-3.118-1.128l-2.999-2.496c.626-1.085.992-2.349.992-3.71 0-1.981-.768-3.84-2.163-5.236l-.126-.126-1.422 1.407.136.135c1.015 1.016 1.575 2.373 1.575 3.919 0 2.89-2.352 5.242-5.242 5.242h-.929c-.413-1.164-1.525-2-2.829-2-.852 0-1.677.25-2.387.723l-1.916 1.277h-3.456c-2.889 0-5.241-2.352-5.241-5.341 0-1.447.56-2.804 1.573-3.818l.138-.137-1.422-1.407-.128.128c-1.393 1.394-2.161 3.253-2.161 5.333 0 3.993 3.248 7.242 7.241 7.242h2.759v4h-3.993c-6.62 0-12.007-5.386-12.007-12.007 0-5.424 3.675-10.131 8.937-11.447l3.063-.765v1.219c0 2.757 2.243 5 5 5h1v2h2v-2h1c2.757 0 5-2.243 5-5v-1.38l.32.064c3.747.75 6.94 3.269 8.542 6.739l.27.583-1.122 7.853 1.98.283 1.877-13.142h4.133v13.118c0 2.688-2.187 4.875-4.875 4.875z"/></g></svg>